<?xml version="1.0" encoding="UTF-8"?>
<svg id="Layer_1" xmlns="http://www.w3.org/2000/svg" viewBox="0 0 200 200">
  <defs>
    <style>
      .cls-1 {
        fill: #834ca0;
      }

      .cls-2 {
        fill: #c4c2b8;
      }

      .cls-3 {
        fill: #5f5b07;
      }

      .cls-4 {
        fill: #454007;
      }

      .cls-5 {
        fill: #605908;
      }

      .cls-6 {
        fill: #262303;
      }

      .cls-7 {
        fill: #a99f0f;
      }

      .cls-8 {
        fill: #b4489e;
      }

      .cls-9 {
        fill: #958c0c;
      }

      .cls-10 {
        fill: #897f0a;
      }

      .cls-11 {
        fill: #f26a16;
      }

      .cls-12 {
        fill: #8c840b;
      }

      .cls-13 {
        fill: #fcb609;
      }
    </style>
  </defs>
  <path class="cls-6" d="M180.82,102.96c-.69,12.01-3.07,23.68-7.52,34.89-3.26,8.14-7.48,15.74-12.86,22.68-6.37,8.29-14.01,15.16-22.76,20.84-6.14,3.95-12.55,7.45-19.46,9.86-4.8,1.65-9.48,3.61-14.35,4.91-4.91,1.34-9.98,2.38-15.04,3.03-4.95.65-9.98.88-14.97.81-6.37-.12-12.63-1.19-18.77-3.19-5.49-1.77-10.67-3.99-15.54-6.99-7.14-4.38-13.28-9.9-18.54-16.43-5.49-6.83-10.13-14.2-13.32-22.41-3.03-7.79-5.33-15.81-6.56-24.1-1.5-10.13-1.3-20.38-.58-30.51.77-10.71,2.8-21.34,7.91-31.01,3.42-6.45,8.41-11.44,15.62-13.09,3.91-.92,8.14-.5,12.24-.61,1.11-.04,2.26.19,3.38.31,1-4.03,1.92-7.87,2.88-11.71,2.07-8.02,4.99-15.74,9.67-22.57,5.14-7.48,11.63-13.55,20.49-16.35,5.1-1.61,10.44-1.54,15.81-.96,6.6.73,12.47,3.22,18.04,6.52,5.3,3.19,10.06,7.14,14.28,11.74,5.07,5.49,9.25,11.55,12.67,18.15,2.07,3.99,3.68,8.21,5.45,12.32.46,1.04.58,1.73,2.23,1.38,7.83-1.57,15.62-1.61,23.1,1.77,4.99,2.26,8.56,6.06,11.13,10.9,2.99,5.64,4.49,11.63,4.91,17.96.12,1.38.27,2.76.38,4.14.08.27.15.54.23.81.04,4.61.04,9.21.08,13.78-.04,1.07-.12,2.11-.23,3.11h0ZM92.93,30.43l-.38.77c-1.07,4.03-1.92,8.14-3.22,12.05-2.8,8.41-6.64,16.5-6.06,25.75.23,3.91,1.11,7.56,2.99,10.98.23.38.5.77.81,1.27.61-.58,1-1,1.42-1.34,4.76-4.07,9.33-8.37,14.32-12.13,8.37-6.29,17.54-11.25,27.48-14.62.5-.19,1.3-1,1.23-1.27-.38-1.3-1.07-2.49-1.65-3.76-.15-.61-.23-1.27-.54-1.8-2.72-4.84-5.3-9.83-8.33-14.47-6.06-9.25-14.09-16.39-24.22-20.99-2.15-.96-4.49-1.5-6.72-2.26-.12.15-.23.31-.31.46,2.49,5.72,3.84,11.63,3.57,17.88-.04.27-.04.5-.08.77l-.31,2.72h0ZM165.39,64.58c0,2.53-.04,5.1-.04,7.68-.08.77-.19,1.54-.27,2.34-.15,1.88-.31,3.8-.46,5.68-.27.5-.58.96-.73,1.46-1.5,5.53-3.57,10.78-6.56,15.7-5.41,8.79-12.59,15.93-20.38,22.53-9.06,7.68-18.42,14.93-27.36,22.72-14.24,12.43-24.45,27.25-26.64,46.67-.27,2.53.23,3.03,2.61,2.19,1.38-.12,2.8-.12,4.14-.38,7.18-1.38,14.24-3.19,21.15-5.64,9.13-3.26,17.69-7.48,25.64-13.05,7.64-5.37,14.09-11.9,19.54-19.42,4.11-5.68,7.37-11.9,9.9-18.5,3.03-7.87,5.03-15.97,6.03-24.33.38-3.15.65-6.29.77-9.48.19-4.64.15-9.29.23-13.93-.08-.27-.12-.54-.19-.81-.27-2.76-.35-5.56-.84-8.29-.92-5.03-2.15-10.02-5.6-14.05l-.58-.54c-.12.23-.19.46-.31.69-.04.12-.08.23-.12.38-.04.04-.12.08-.12.12.08.08.12.19.19.27h0ZM52.98,56.91c7.79,3.76,14.78,8.79,21.88,14.35,0-1.15.04-1.77,0-2.42-.38-6.95,1.69-13.43,3.8-19.92,2-6.1,4.07-12.2,5.64-18.38,1.15-4.61,1-9.36-.61-13.93-1.04-2.57-2.03-5.22-3.19-7.75-.19-.38-1.15-.77-1.57-.61-3.07,1-6.26,1.8-9.06,3.34-5.18,2.88-8.79,7.37-11.86,12.4-5.49,8.94-8.14,18.88-9.98,29.05-.12.65.27,1.77.77,2.07,1.3.77,2.8,1.23,4.18,1.8h0ZM61.31,165.91c-.08-.15-.15-.27-.27-.42-.04-.38-.08-.73-.12-1.11-.08-.15-.15-.27-.27-.42,0-.12-.04-.23-.08-.35-.38-3.19-.77-6.41-1.11-9.59v-1.15c-.08-1.54-.19-3.07-.27-4.61v-3.84c.08-1.65.19-3.34.27-4.99l.15-1.92c.23-1.92.35-3.88.69-5.8,1.27-7.56,3.61-14.78,6.91-21.72,3.49-7.29,7.56-14.2,12.74-20.46.96-1.15,1-2.23-.73-2.72-.19-.35-.31-.73-.58-.96-7.41-7.37-15.47-13.89-24.56-19.04-7.56-4.3-15.35-7.87-24.41-7.25-3.3.23-6.22,1.34-9.1,3.57,6.33,1.61,10.13,5.56,12.78,10.9,2.88,5.8,4.3,12.01,5.41,18.31.58,3.26,1.07,6.56,1.57,9.86.38,2.57.81,5.1,1.19,7.68.04.23.08.5.12.73.08.65.19,1.3.27,1.96.04.23.08.5.12.73.08.77.12,1.57.19,2.34.77,5.18,1.42,10.36,2.26,15.54,1.69,10.13,4.03,20.07,8.1,29.55,2.38,5.64,5.3,10.9,8.98,15.77,1.34,1.8,2.96,3.42,4.64,5.33-1.73-5.56-3.34-10.75-4.91-15.93h0ZM35.71,176.65c2.69,2.03,5.22,4.3,8.06,6.06,2.88,1.8,6.03,3.26,9.17,4.61,2.99,1.3,6.06,2.42,9.4,2.49-4.22-4.07-7.79-8.52-10.9-13.36-4.03-6.26-7.18-12.97-9.4-20.03-2.72-8.71-4.87-17.65-6.03-26.75-1-7.75-2.34-15.43-3.34-23.18-.96-7.64-2.07-15.24-4.3-22.61-.54-1.77-1.5-3.42-2.3-5.1-1.04-3.38-3.45-5.6-6.52-7.02-4.14-1.92-4.8-1.54-6.22,2.84,0,.08-.04.12-.08.19-3.07,8.6-4.61,17.58-5.1,26.64-.46,8.25-.46,16.54,1.04,24.75,1.57,8.83,4.03,17.42,7.75,25.64,3.11,6.87,7.25,13.16,12.24,18.84,1.96,2.15,4.34,3.99,6.52,5.99h0ZM155.49,79.17c.27-.31.69-.58.73-.92.42-2.61,1-5.26,1.11-7.91.12-3.11-.19-6.22-.31-9.36-.08-2.65-.31-2.88-2.84-3.3-.42-.08-.88-.04-1.34-.04-7.22-.23-14.12,1.34-20.92,3.68-8.71,3.07-16.77,7.45-24.18,12.9-6.56,4.8-12.9,9.98-18.04,16.39-2.92,3.61-6.06,7.1-8.44,11.05-3.07,5.1-5.8,10.44-8.06,15.97-1.92,4.64-2.96,9.67-4.38,14.51-.38,3.15-.96,6.29-1.15,9.44-.5,9.48.58,18.81,3.53,27.86,1.3,3.95,2.8,7.79,4.22,11.71,1.11-2.42,1.8-4.8,2.49-7.14,3.3-11.32,9.71-20.8,17.65-29.36,7.98-8.56,17.16-15.77,26.25-23.07,8.02-6.41,15.97-12.82,22.61-20.72,3.84-4.57,7.18-9.44,9.4-14.97.73-2.07,1.07-4.45,1.65-6.72h0Z"/>
  <path class="cls-2" d="M180.74,103.11c.12-1.04.19-2.07.31-3.11-.12,1.07-.19,2.11-.31,3.11Z"/>
  <path class="cls-2" d="M180.97,86.22c-.08-.27-.15-.54-.23-.81.08.27.15.54.23.81Z"/>
  <path class="cls-13" d="M155.41,79.31c-.58,2.26-.88,4.61-1.77,6.75-2.23,5.53-5.53,10.4-9.4,14.97-6.64,7.91-14.58,14.32-22.61,20.72-9.1,7.29-18.27,14.51-26.25,23.07-7.94,8.56-14.32,18.04-17.65,29.36-.69,2.34-1.34,4.68-2.49,7.14-1.42-3.91-2.96-7.75-4.22-11.71-2.96-9.06-4.03-18.38-3.53-27.86.15-3.15.77-6.29,1.15-9.44.5-.54,1.15-1,1.42-1.65.61-1.38.92-2.92,1.61-4.26,2.84-5.37,5.53-10.86,8.75-15.97,2.42-3.84,5.45-7.37,8.48-10.78,2.57-2.92,5.41-5.64,8.37-8.14,3.72-3.15,7.64-6.1,11.63-8.87,3.49-2.42,7.1-4.76,10.94-6.56,7.18-3.42,14.51-6.56,22.57-7.33,3.42-.31,6.87-.42,10.29-.5,1-.04,1.88.35,1.92,1.8.19,3.07.54,6.18.81,9.25h0Z"/>
  <path class="cls-1" d="M85.52,191.69c-2.38.84-2.92.35-2.61-2.19,2.19-19.38,12.4-34.23,26.64-46.67,8.94-7.79,18.31-15.08,27.36-22.72,7.75-6.6,14.97-13.74,20.38-22.53,2.99-4.91,5.07-10.17,6.56-15.7.15-.5.5-.96.73-1.46.27,2.34.69,4.64.77,6.99.35,9.17-.08,18.35-1.57,27.44-1.65,9.9-4.61,19.46-9.21,28.44-2.99,5.83-6.6,11.32-10.94,16.23-6.03,6.79-12.82,12.74-20.76,17.19-5.22,2.92-10.59,5.53-16.04,7.98-3.57,1.61-7.37,2.84-11.17,3.91-3.68,1.07-7.45,1.73-11.21,2.53.31.19.69.38,1.07.54h0Z"/>
  <path class="cls-13" d="M26.04,78.93c.77,1.69,1.73,3.34,2.3,5.1,2.26,7.37,3.38,14.97,4.3,22.61.96,7.75,2.34,15.43,3.34,23.18,1.15,9.13,3.3,18.04,6.03,26.75,2.23,7.06,5.33,13.78,9.4,20.03,3.15,4.84,6.68,9.29,10.9,13.36-3.34-.08-6.41-1.19-9.4-2.49-3.15-1.38-6.29-2.8-9.17-4.61-2.84-1.77-5.37-4.03-8.06-6.06-.27-.65-.38-1.34-.77-1.88-1.38-2.03-2.96-3.95-4.26-6.06-1.73-2.8-3.68-5.56-4.8-8.6-2.38-6.41-4.64-12.9-6.33-19.5-1.34-5.18-2.3-10.59-2.49-15.93-.27-6.99.27-14.01.65-20.99.38-7.14,2.19-14.05,4.22-20.88,1.11-3.8,1.38-4.03,4.14-4.03h0Z"/>
  <path class="cls-8" d="M59.39,154.15c.38,3.19.77,6.41,1.11,9.59-.35-.61-.88-1.19-1.07-1.84-2.19-8.56-4.53-17.08-6.41-25.68-1.96-8.98-3.57-18.04-5.07-27.1-1.04-6.33-1.73-12.7-2.34-19.07-.46-4.49-.61-9.02-.77-13.51-.08-2.65,1.54-5.33,5.18-4.87,1.38.19,2.8.38,4.11.84,6.52,2.38,12.17,6.33,17.92,10.06,2.34,1.5,4.72,2.96,7.06,4.41,1.73.5,1.69,1.57.73,2.72-5.18,6.26-9.25,13.16-12.74,20.46-3.34,6.91-5.64,14.16-6.91,21.72-.31,1.92-.46,3.88-.69,5.8-.04.65-.08,1.27-.15,1.92-.08,1.65-.19,3.34-.27,4.99v3.84c.08,1.54.19,3.07.27,4.61.04.35.04.73.04,1.11h0Z"/>
  <path class="cls-8" d="M129.81,48.3c.58,1.23,1.23,2.46,1.65,3.76.08.27-.69,1.07-1.23,1.27-9.94,3.38-19.11,8.33-27.48,14.62-4.99,3.76-9.56,8.06-14.32,12.13-.42.38-.84.77-1.42,1.34-.31-.5-.58-.88-.81-1.27.31-2.34.5-4.72.88-7.06.54-3.11.92-6.29,1.88-9.29,1.38-4.41,3.3-8.64,4.87-12.97,2.3-6.37,3.53-12.97,4.03-19.69.15-2.26.58-4.53,1.11-6.72s2.15-3.03,4.18-2.15c1.96.84,3.99,1.77,5.64,3.11,6.52,5.33,11.86,11.86,17.12,18.42,1.23,1.5,2.57,2.99,3.88,4.49h0Z"/>
  <path class="cls-1" d="M79.12,86.95c-2.34-1.46-4.72-2.92-7.06-4.41-5.8-3.68-11.44-7.68-17.92-10.06-1.3-.46-2.72-.69-4.11-.84-3.65-.46-5.26,2.23-5.18,4.87.15,4.53.31,9.02.77,13.51.61,6.37,1.3,12.74,2.34,19.07,1.5,9.06,3.15,18.12,5.07,27.1,1.88,8.64,4.22,17.16,6.41,25.68.15.65.69,1.23,1.07,1.84.04.12.08.23.08.35.08.15.15.27.27.42.04.38.08.73.12,1.11.08.15.15.27.27.42,1.61,5.18,3.19,10.36,4.91,15.93-1.69-1.92-3.26-3.57-4.64-5.33-3.68-4.84-6.6-10.13-8.98-15.77-4.03-9.52-6.41-19.46-8.1-29.55-.84-5.18-1.54-10.36-2.26-15.54-.08-.77-.12-1.57-.19-2.34-.04-.23-.08-.5-.12-.73-.08-.65-.19-1.3-.27-1.96-.04-.23-.08-.5-.12-.73-.12-1.61-.15-3.22-.38-4.8-.12-.96-.54-1.92-.84-2.88-.54-3.3-1-6.56-1.57-9.86-1.15-6.29-2.57-12.51-5.41-18.31-2.65-5.3-6.45-9.25-12.78-10.9,2.88-2.26,5.76-3.34,9.1-3.57,9.06-.61,16.89,2.96,24.41,7.25,9.1,5.14,17.16,11.67,24.56,19.04.27.31.38.69.58,1h0Z"/>
  <path class="cls-13" d="M83.61,16.76c1.61,4.57,1.77,9.33.61,13.93-1.57,6.22-3.65,12.28-5.64,18.38-2.11,6.49-4.18,12.97-3.8,19.92.04.61,0,1.27,0,2.42-7.1-5.56-14.09-10.59-21.88-14.35.08-.77,0-1.57.19-2.26,1.42-4.61,2.65-9.25,4.38-13.74,2.76-7.25,6.72-13.82,13.01-18.65,3.88-2.99,8.17-5.07,13.13-5.64h0Z"/>
  <path class="cls-8" d="M85.52,191.69c-.38-.19-.77-.35-1.11-.5,3.72-.84,7.52-1.5,11.21-2.53,3.8-1.07,7.56-2.3,11.17-3.91,5.45-2.46,10.86-5.07,16.04-7.98,7.94-4.45,14.78-10.4,20.76-17.19,4.34-4.91,7.91-10.36,10.94-16.23,4.64-8.98,7.6-18.54,9.21-28.44,1.5-9.06,1.92-18.23,1.57-27.44-.08-2.34-.5-4.68-.77-6.99.15-1.88.31-3.8.46-5.68,1.15-.65.92-1.46.27-2.34,0-2.53.04-5.1.04-7.68,0-.12-.04-.27-.04-.38.04-.12.08-.23.12-.38.31-.04.58-.08.88-.12,3.45,4.07,4.68,9.02,5.6,14.05.5,2.72.58,5.53.84,8.29.08.27.12.54.19.81-.08,4.64-.04,9.29-.23,13.93-.12,3.15-.42,6.33-.77,9.48-1,8.37-2.99,16.46-6.03,24.33-2.53,6.56-5.8,12.78-9.9,18.5-5.45,7.52-11.9,14.09-19.54,19.42-7.94,5.56-16.5,9.79-25.64,13.05-6.91,2.46-13.97,4.26-21.15,5.64-1.38.19-2.76.19-4.14.31h0Z"/>
  <path class="cls-11" d="M26.04,78.93c-2.76,0-3.07.23-4.18,4.07-2.03,6.83-3.84,13.7-4.22,20.88-.38,6.99-.92,14.01-.65,20.99.19,5.33,1.15,10.75,2.49,15.93,1.73,6.6,3.95,13.09,6.33,19.5,1.15,3.03,3.07,5.8,4.8,8.6,1.3,2.11,2.88,4.03,4.26,6.06.38.54.54,1.27.77,1.88-2.19-2-4.61-3.84-6.52-6.06-4.95-5.68-9.1-11.97-12.24-18.84-3.72-8.17-6.14-16.77-7.75-25.64-1.5-8.21-1.5-16.54-1.04-24.75.5-9.06,2.03-18,5.1-26.64.04-.08.04-.12.08-.19,1.42-4.38,2.07-4.76,6.22-2.84,3.11,1.46,5.53,3.68,6.56,7.06h0Z"/>
  <path class="cls-11" d="M155.41,79.31c-.27-3.11-.61-6.18-.73-9.29-.04-1.46-.92-1.8-1.92-1.8-3.42.08-6.87.19-10.29.5-8.06.73-15.39,3.91-22.57,7.33-3.84,1.8-7.41,4.18-10.94,6.56-4.03,2.76-7.91,5.72-11.63,8.87-2.99,2.49-5.8,5.22-8.37,8.14-3.03,3.42-6.06,6.95-8.48,10.78-3.22,5.14-5.91,10.59-8.75,16-.69,1.34-.96,2.88-1.61,4.26-.31.65-.96,1.11-1.42,1.65,1.42-4.84,2.46-9.86,4.38-14.51,2.26-5.49,4.99-10.86,8.06-15.97,2.38-3.95,5.56-7.41,8.44-11.05,5.14-6.41,11.48-11.59,18.04-16.39,7.41-5.41,15.47-9.83,24.18-12.9,6.75-2.38,13.66-3.95,20.92-3.68.46,0,.88,0,1.34.04,2.53.38,2.76.65,2.84,3.3.12,3.11.42,6.26.31,9.36-.12,2.65-.69,5.26-1.11,7.91-.04.31-.46.61-.69.88h0Z"/>
  <path class="cls-1" d="M129.81,48.3c-1.3-1.54-2.65-2.99-3.91-4.57-5.26-6.56-10.55-13.09-17.12-18.42-1.65-1.34-3.68-2.26-5.64-3.11-2.03-.88-3.65-.04-4.18,2.15s-.96,4.45-1.11,6.72c-.46,6.75-1.73,13.36-4.03,19.69-1.57,4.34-3.45,8.6-4.87,12.97-.96,2.99-1.34,6.18-1.88,9.29-.38,2.34-.61,4.72-.88,7.06-1.92-3.42-2.76-7.06-2.99-10.98-.58-9.21,3.3-17.35,6.06-25.75,1.3-3.95,2.15-8.02,3.22-12.05.12-.27.27-.54.38-.77.12-.88.19-1.8.31-2.69.04-.27.04-.5.08-.77.27-6.22-1.07-12.17-3.57-17.88.12-.15.23-.31.31-.46,2.23.73,4.57,1.3,6.72,2.26,10.13,4.61,18.15,11.74,24.22,20.99,3.03,4.64,5.6,9.63,8.33,14.47.35.58.42,1.23.58,1.84h0Z"/>
  <path class="cls-11" d="M83.61,16.76c-4.91.58-9.21,2.61-13.13,5.64-6.29,4.87-10.25,11.4-13.01,18.65-1.73,4.49-2.96,9.13-4.38,13.74-.23.73-.15,1.5-.19,2.26-1.42-.58-2.88-1-4.18-1.8-.5-.31-.88-1.42-.77-2.07,1.84-10.21,4.45-20.11,9.98-29.05,3.07-4.99,6.68-9.56,11.86-12.4,2.8-1.54,5.99-2.34,9.06-3.34.42-.15,1.42.23,1.57.61,1.15,2.53,2.15,5.18,3.19,7.75h0Z"/>
  <path class="cls-9" d="M40.28,102.34c.27.96.69,1.88.84,2.88.23,1.57.27,3.22.38,4.8-.46-2.57-.84-5.14-1.23-7.68h0Z"/>
  <path class="cls-12" d="M165.28,72.41c.65.84.88,1.69-.27,2.34.08-.81.19-1.57.27-2.34Z"/>
  <path class="cls-9" d="M41.93,113.43c.08.77.12,1.57.19,2.34-.04-.77-.12-1.57-.19-2.34Z"/>
  <path class="cls-9" d="M41.58,110.75c.08.65.19,1.3.27,1.96-.08-.65-.19-1.3-.27-1.96h0Z"/>
  <path class="cls-5" d="M59.39,139.57c.04-.65.08-1.27.15-1.92-.08.65-.12,1.27-.15,1.92Z"/>
  <path class="cls-12" d="M166.24,63.85c-.31.04-.58.08-.88.12.12-.23.19-.46.31-.69l.58.58h0Z"/>
  <path class="cls-10" d="M92.86,30.57c-.12.27-.27.54-.38.77.15-.23.27-.5.38-.77Z"/>
  <path class="cls-10" d="M93.24,27.12c-.04.27-.04.5-.08.77.04-.27.04-.5.08-.77Z"/>
  <path class="cls-3" d="M172.91,86.99c-.08-.27-.12-.54-.19-.81.04.27.12.54.19.81Z"/>
  <path class="cls-4" d="M165.28,64.35c0,.12.04.27.04.38-.04-.08-.12-.19-.15-.27-.04-.04.08-.08.12-.12Z"/>
  <path class="cls-7" d="M60.85,164.52c-.08-.15-.15-.27-.27-.42.08.15.19.27.27.42Z"/>
  <path class="cls-7" d="M61.23,166.05c-.08-.15-.15-.27-.27-.42.12.15.19.27.27.42Z"/>
</svg>